<svg fill="none" height="48" viewBox="0 0 48 48" width="48" xmlns="http://www.w3.org/2000/svg" xmlns:xlink="http://www.w3.org/1999/xlink"><clipPath id="a"><path d="m0 0h48v48h-48z"/></clipPath><g clip-path="url(#a)"><path d="m21.8781 16.1527h-3.8699v-3.8699c0-.5375-.43-.9675-.9675-.9675h-4.8373c-.5375 0-.9675.43-.9675.9675v3.8699h-3.86992c-.53749 0-.96748.43-.96748.9675v4.8374c0 .5375.42999.9675.96748.9675h3.86992v3.8699c0 .5375.43.9675.9675.9675h4.8373c.5375 0 .9675-.43.9675-.9675v-3.8699h3.8699c.5375 0 .9675-.43.9675-.9675v-4.8374c0-.5375-.43-.9675-.9675-.9675zm-.9137 4.8912h-3.8699c-.5375 0-.9675.43-.9675.9674v3.8699h-2.9562v-3.8699c0-.5374-.43-.9674-.9674-.9674h-3.86995v-2.9562h3.86995c.5374 0 .9674-.43.9674-.9675v-3.8699h2.9562v3.8699c0 .5375.43.9675.9675.9675h3.8699z" fill="#f1d427"/><g fill="#adb2b2"><path d="m46.1188 21.5814h-1.505l-5.6436-10.7497c-.1612-.3225-.4837-.5375-.86-.5375h-.5374v-.37625c0-1.71996-1.3975-3.11743-3.1175-3.11743-1.7199 0-3.1174 1.39747-3.1174 3.11743v.37625h-.9675v-1.12874c0-1.07497-.8599-1.8812-1.8812-1.8812h-26.60558c-1.07497 0-1.88120013.85998-1.88120013 1.8812v25.04694c-.05374867 1.0749.80623013 1.8812 1.88120013 1.8812h5.37487c.48374 2.9024 2.95621 5.1061 6.01981 5.1061 3.0637 0 5.5362-2.2037 6.0199-5.1061h9.191c.3225 0 .6988-.1075.9675-.2688.2687.1613.5912.2688.9675.2688h1.3437c.4837 2.9024 2.9562 5.1061 6.0199 5.1061 3.0099 0 5.5361-2.2037 6.0198-5.1061h2.3112c1.075 0 1.8812-.86 1.8812-1.8812v-10.7498c0-1.075-.86-1.8812-1.8812-1.8812zm-32.8942 17.7371c-2.3112 0-4.1924-1.8812-4.1924-4.1924s1.8812-4.1924 4.1924-4.1924 4.1924 1.8812 4.1924 4.1924c0 2.3649-1.8812 4.1924-4.1924 4.1924zm15.2109-15.8559v10.7498h-9.191c-.4838-2.9025-2.9562-5.1062-6.0199-5.1062s-5.53612 2.2037-6.01986 5.1062h-5.32112v-25.04694h26.55188zm6.0198-14.78087c.6988 0 1.2363.53748 1.2363 1.23622v.37625h-2.4725v-.37625c0-.69874.5375-1.23622 1.2362-1.23622zm-4.1386 3.49367h1.9349 4.3537.9137l4.7836 9.3523h-11.9859zm7.3636 27.1431c-2.3112 0-4.1924-1.8812-4.1924-4.1924s1.8812-4.1924 4.1924-4.1924c2.3111 0 4.1924 1.8812 4.1924 4.1924-.0538 2.3649-1.935 4.1924-4.1924 4.1924zm8.2773-11.4485h-.645v-1.1825h.645zm0-3.1174h-1.6125c-.5375 0-.9675.43-.9675.9675v3.1174c0 .5375.43.9675.9675.9675h1.6125v4.4074h-2.3112c-.4838-2.9025-2.9562-5.1062-6.0199-5.1062-3.0099 0-5.5361 2.2037-6.0198 5.1062h-1.3438v-10.7498h15.6947z"/><path d="m37.6802 32.0085c-1.7737 0-3.1711 1.4513-3.1711 3.1712 0 1.7737 1.4512 3.1712 3.1711 3.1712 1.7737 0 3.1712-1.4512 3.1712-3.1712 0-1.7737-1.4512-3.1712-3.1712-3.1712zm0 4.4074c-.6987 0-1.2899-.5912-1.2899-1.2899 0-.6988.5912-1.29 1.2899-1.29.6988 0 1.29.5912 1.29 1.29-.0537.7525-.5912 1.2899-1.29 1.2899z"/><path d="m13.2246 32.0085c-1.7737 0-3.1712 1.4513-3.1712 3.1712 0 1.7737 1.4513 3.1712 3.1712 3.1712 1.7737 0 3.1712-1.4512 3.1712-3.1712 0-1.7737-1.3975-3.1712-3.1712-3.1712zm0 4.4074c-.6987 0-1.29-.5912-1.29-1.2899 0-.6988.5913-1.29 1.29-1.29s1.29.5912 1.29 1.29c0 .7525-.5913 1.2899-1.29 1.2899z"/><path d="m36.0678 14.3252c-.3225-.3762-.9675-.43-1.3437-.1075l-2.4724 2.15c-.43.3762-.4838.9674-.1075 1.3437.2149.215.4299.3225.6987.3225.215 0 .43-.0538.645-.215l2.4724-2.15c.3763-.3225.43-.9674.1075-1.3437z"/><path d="m38.4327 16.529c-.3225-.3763-.9674-.43-1.3437-.1075l-2.4724 2.1499c-.43.3225-.4838.9138-.1613 1.29.215.215.4838.3762.7525.3762.215 0 .43-.0537.645-.215l2.4724-2.1499c.3763-.3225.43-.9675.1075-1.3437z"/></g></g></svg>