<svg fill="none" height="48" viewBox="0 0 48 48" width="48" xmlns="http://www.w3.org/2000/svg" xmlns:xlink="http://www.w3.org/1999/xlink"><clipPath id="a"><path d="m0 0h48v48h-48z"/></clipPath><g clip-path="url(#a)"><path d="m34.0577 6.2794c-6.8116 0-12.2927 5.5344-12.2927 12.2927s5.5344 12.3459 12.2927 12.3459 12.2926-5.5344 12.2926-12.2927-5.4811-12.3459-12.2926-12.3459zm0 22.7228c-5.7473 0-10.4302-4.6829-10.4302-10.4301s4.6829-10.43017 10.4302-10.43017c5.7472 0 10.4301 4.68297 10.4301 10.43017s-4.6829 10.4301-10.4301 10.4301z" fill="#adb2b2"/><path d="m40.2306 15.5921h-3.1397v-3.1397c0-.5322-.4257-.9579-.9579-.9579h-4.1508c-.5321 0-.9578.4257-.9578.9579v3.1397h-3.1397c-.5322 0-.9579.4257-.9579.9578v4.1508c0 .5322.4257.9579.9579.9579h3.1397v3.1397c0 .5321.4257.9578.9578.9578h4.1508c.5322 0 .9579-.4257.9579-.9578v-3.1397h3.1397c.5321 0 .9579-.4257.9579-.9579v-4.1508c0-.5321-.4258-.9578-.9579-.9578zm-.9579 4.1507h-3.1397c-.5321 0-.9578.4258-.9578.9579v3.1397h-2.2351v-3.1397c0-.5321-.4257-.9579-.9579-.9579h-3.1396v-2.235h3.1396c.5322 0 .9579-.4257.9579-.9579v-3.1929h2.2351v3.1929c0 .5322.4257.9579.9578.9579h3.1397z" fill="#f1d427"/><path d="m19.051 41.561-1.4368-.5322 1.7029-.7982c.3725-.1596.5853-.5321.5321-.9047 0-.3725-.2661-.745-.6386-.8514l-1.3836-.4789v-.9047c.2661 0 .5854.0532.8515.0532.5321 0 .9579-.4257.9579-.9578v-8.7273c0-.5322-.4258-.9579-.9579-.9579h-3.5654c-4.0976 0-6.17298-2.5011-6.17298-7.5033-.10643-5.1087 2.28828-8.3016 6.06648-8.3016h3.5655c.5321 0 .9578-.4257.9578-.95784v-8.780489c0-.53215-.4257-.957871-.9578-.957871-1.3304 0-2.5544.159645-3.7783.478936-.0532 0-.1064 0-.1597.053215-7.45007 2.022169-12.98444 9.312639-12.98444 18.093149 0 8.7273 5.53437 16.0177 12.98444 17.9867.0533.0532.1065.0532.1597.0532.3725.1064.6918.1596 1.0643.2129v1.8093c0 .3193.1596.6385.4789.7982l-1.7029.745c-.3725.1596-.5853.5322-.5321.9047 0 .3725.2661.745.6386.8514l1.5432.5854-1.5964.7982c-.3193.1596-.5322.5321-.5322.9046s.2661.6918.6386.8515l1.2771.4789v1.4368c0 .5322.4258.9579.9579.9579.5322 0 .9579-.4257.9579-.9579v-2.0754c0-.3725-.2129-.6918-.4789-.8514l1.6496-.7982c.3193-.1597.5322-.5322.5322-.9047s-.2661-.6918-.6386-.8514zm-3.0865-39.37918c.5322-.10643 1.1175-.15965 1.7029-.21286v6.81153h-1.7029zm-1.9157 32.30158c-6.11976-2.1286-10.53661-8.4612-10.53661-15.9113s4.47006-13.72953 10.53661-15.85813v6.17295c-3.459.3725-7.07763 3.19288-7.07763 10.11088 0 5.5876 2.55432 8.9401 7.07763 9.3658zm1.9157.5321v-6.5986h1.7029v6.8115c-.5854-.0532-1.1175-.1064-1.7029-.2129z" fill="#adb2b2"/></g></svg>