<svg height="32" viewBox="0 0 32 32" width="32" xmlns="http://www.w3.org/2000/svg"><path d="m16 28c6.6274173 0 12-5.3725827 12-12 0-6.62741733-5.3725827-12-12-12-6.62741733 0-12 5.37258267-12 12 0 6.6274173 5.37258267 12 12 12zm0 2c-7.73198688 0-14-6.2680131-14-14 0-7.73198688 6.26801312-14 14-14 7.7319869 0 14 6.26801312 14 14 0 7.7319869-6.2680131 14-14 14zm-7.77817459-6.2218254s3.18198049-8.8388348 4.94974749-10.6066017 10.6066017-4.94974749 10.6066017-4.94974749-3.1819806 8.83883469-4.9497475 10.60660169c-1.7677668 1.7677671-10.60660169 4.9497475-10.60660169 4.9497475zm9.19238819-6.363961-2.8284272-2.8284272c-.7071067-.7071067-3.5355339 6.3639611-3.5355339 6.3639611s7.0710678-2.8284272 6.3639611-3.5355339zm0 0" fill-rule="evenodd"/></svg>