<svg fill="none" height="248" viewBox="0 0 350 248" width="350" xmlns="http://www.w3.org/2000/svg" xmlns:xlink="http://www.w3.org/1999/xlink"><linearGradient id="a"><stop offset="0" stop-color="#808080" stop-opacity=".25"/><stop offset=".54" stop-color="#808080" stop-opacity=".12"/><stop offset="1" stop-color="#808080" stop-opacity=".1"/></linearGradient><linearGradient id="b" gradientUnits="userSpaceOnUse" x1="112.861" x2="112.861" xlink:href="#a" y1="245.507" y2="50.5448"/><linearGradient id="c" gradientUnits="userSpaceOnUse" x1="70699.2" x2="70699.2" xlink:href="#a" y1="147101" y2="47025.7"/><clipPath id="d"><path d="m0 0h350v248h-350z"/></clipPath><g clip-path="url(#d)"><g fill="#0abab5"><path d="m116.361 247.861c17.044 0 30.862-2.22 30.862-4.959 0-2.738-13.818-4.958-30.862-4.958-17.0452 0-30.8627 2.22-30.8627 4.958 0 2.739 13.8175 4.959 30.8627 4.959z" opacity=".1"/><path d="m284.123 248c21.269 0 38.511-2.22 38.511-4.958 0-2.739-17.242-4.959-38.511-4.959s-38.511 2.22-38.511 4.959c0 2.738 17.242 4.958 38.511 4.958z" opacity=".1"/><path d="m4.38353 107.154h32.14497v43.828h-29.79166c-.07918.45-.1552.903-.23755 1.356h30.02921v35.346c-.0538-.016-.1013-.035-.152-.054-.8489-.336-1.6914-.691-2.5339-1.071l-.5384-.244c-.8446-.399-1.6892-.821-2.5338-1.267-.2946-.155-.5892-.317-.8806-.482-4.6889-2.627-8.9485-5.956-12.6312-9.872-.1077-.105-.209-.216-.3167-.317-.5131-.558-1.0167-1.122-1.5045-1.698l-.5384-.634c-.5765-.707-1.1339-1.432-1.6755-2.167-.0792-.108-.1552-.216-.2376-.317-2.2027-3.055-4.03163-6.363-5.44773-9.854-.04434-.104-.08235-.218-.12353-.316-.43497-1.12-.82033-2.25-1.15606-3.391-.1457-.478-.28506-.95-.40542-1.448-.04434-.145-.08235-.288-.11719-.43-1.79903-7.025-2.01124-14.321-2.01124-21.567 0-.846 0-1.695 0-2.535 0-2.931.03484-5.881.08552-8.827 0-.764.03167-1.524.04751-2.291.04434-1.945.10769-3.891.19004-5.836.019-.542.04434-1.08.07284-1.619 0-.311.01584-.621.04751-.931.07602-1.128.13937-2.247.21538-3.362z" opacity=".1"/><path d="m36.5285 58.3548h-17.6324c2.8663-4.4878 5.998-8.8002 9.3784-12.9143 2.6194-3.219 5.3844-6.3557 8.254-9.3783z" opacity=".1"/><path d="m36.5285 59.7109v46.0871h-32.04364c0-.133.02217-.27.03168-.403.0285-.364.05701-.728.08868-1.089.03484-.425.07285-.853.11402-1.268.04118-.415.08552-.922.13303-1.381.04751-.46.09185-.925.1457-1.385.05384-.4592.10135-.9186.15836-1.3749.05701-.4562.10769-.9188.16787-1.3751.04751-.3802.09818-.7572.14886-1.1374.07285-.5354.14887-1.0741.23122-1.6064 0-.0792.02217-.1615.03484-.2376.57809-3.8965 1.36578-7.7591 2.35964-11.5708 1.04033-3.9985 2.36884-7.9164 3.97494-11.7229 1.7071-3.9821 3.7058-7.8326 5.9799-11.5202z" opacity=".1"/><path d="m44.2029 107.151v43.831h68.6581v-43.831zm0 45.184v37.64c.3927.082.7823.161 1.1687.228.5258.101 1.0484.193 1.5837.272.1013.016.2058.032.3167.041.209.035.4244.064.6335.092.5289.073 1.0547.133 1.5836.181.2502.025.5036.048.757.066l.6113.048c.3326.025.662.044.9882.054.2027 0 .4054.019.6144.025h.4815.5986.814.3642c.2724 0 .5448 0 .814-.025h.019c.1869 0 .3769 0 .567-.025.0527.003.1056.003.1584 0 .1583 0 .3167 0 .4687-.023h.1109l1.061-.082c.3484-.032.7-.073 1.0547-.111l.7222-.085c2.9379-.412 5.8432-1.031 8.6942-1.851 6.4043-1.787 12.6693-4.287 19.0704-6.118 8.2762-2.36 17.4202-3.52 25.4172-.634v-29.693zm68.6581-93.9802v-58.35163268c-7.517-.08146592-15.0137.79800768-22.3077 2.61706268-17.3854 4.36917-32.9844 13.84577-46.3504 25.94887v29.7825h3.446v1.3529h-3.446v46.0935h68.6581v-46.0903h-51.0637v-1.3529zm88.187-19.7103c-4.301-.1521-8.577-1.5145-12.444-3.6183-7.396-4.0238-13.303-10.237-19.904-15.4806-13.714-10.92133-30.723-17.51152-48.171-19.146388v57.955588h98.012l.244-.2566zm8.929-1.5842 9.467 10.3922v-13.117c-3.171.3929-5.949 1.3275-9.455 2.7121zm9.467 162.2607v-46.986h-20.173c-.054-.2-.108-.403-.171-.606.06.203.111.406.168.606h-78.727v33.98c.748.555 1.486 1.138 2.217 1.73.789.634 1.568 1.302 2.351 1.958l.788.653c.377.317.757.634 1.14.931.761.617 1.528 1.225 2.303 1.825.383.317.776.602 1.166.9 6.184 4.73 12.709 8.999 19.52 12.772 1.526.845 3.067 1.67 4.621 2.474 1.036.529 2.078 1.055 3.123 1.565 1.571.767 3.154 1.507 4.751 2.218 14.717 6.609 30.28 11.144 46.242 13.475 3.546.524 7.105.936 10.677 1.236v-28.734h.317zm-98.903-139.6133v46.0903h98.915v-46.0903zm0 47.4433v43.831h98.915v-43.831zm106.593-72.8725v14.6314l12.083-13.2627c-4.003-.6464-8.031-1.1079-12.083-1.3846zm0 72.8885v43.815h96.207v-43.831zm95.855 95.633.339-50.465h-96.194v76.221c6.197.26 12.403.186 18.592-.222h.108c2.956-.186 5.898-.456 8.827-.811h.066c15.625-1.819 30.903-5.897 45.356-12.106zm18.903-88.432c-.361-.852-.738-1.698-1.122-2.534-.715-1.585-1.472-3.124-2.251-4.664h-7.507v43.812h18.979c-.01-12.408-3.149-25.081-8.09-36.63zm-10.88 37.982v43.407c5.346-5.126 9.863-10.991 13.116-17.695 3.911-8.073 5.701-16.815 5.847-25.718zm0-57.9551v11.4061h6.803c-2.058-3.927-4.326-7.7393-6.793-11.422zm-65.246-51.5175c-.501-.1901-1.001-.3834-1.505-.5703-5.311-1.9621-10.739-3.5937-16.251-4.8856l-18.491 20.2996-.355.3771.238.2598h65.81c-9.166-6.3112-19.047-11.513-29.437-15.4965zm31.375 16.8461h-68.658l-1.349 1.2357v44.8388h11.827.019 84.373v-21.7193c-7.632-9.2339-16.441-17.4274-26.203-24.371z" opacity=".1"/><path d="m36.5285 82.957v22.841h-32.04364c0-.133.02217-.27.03168-.403.0285-.364.05701-.728.08868-1.09.03484-.424.07285-.852.11402-1.267.04118-.415.08552-.922.13303-1.381.04751-.46.09185-.925.1457-1.385.05384-.4593.10135-.9187.15836-1.375.05701-.4562.10769-.9188.16787-1.375.04751-.3802.09818-.7573.14886-1.1375.07285-.5354.14887-1.074.23122-1.6063 0-.0792.02217-.1616.03484-.2377.57809-3.8965 1.36578-7.7591 2.35964-11.5708z" opacity=".1"/><path d="m4.38353 107.154h32.14497v43.828h-29.79166c-.07918.45-.1552.903-.23755 1.356h30.02921v35.346c-.0538-.016-.1013-.035-.152-.054-.8489-.336-1.6914-.691-2.5339-1.071l-.5384-.244c-.8446-.399-1.6892-.821-2.5338-1.267-.2946-.155-.5892-.317-.8806-.482-4.6889-2.627-8.9485-5.956-12.6312-9.872-.1077-.105-.209-.216-.3167-.317-.5131-.558-1.0167-1.122-1.5045-1.698l-.5384-.634c-.5765-.707-1.1339-1.432-1.6755-2.167-.0792-.108-.1552-.216-.2376-.317-2.2027-3.055-4.03163-6.363-5.44773-9.854-.04434-.104-.08235-.218-.12353-.316-.43497-1.12-.82033-2.25-1.15606-3.391-.1457-.478-.28506-.95-.40542-1.448-.04434-.145-.08235-.288-.11719-.43-1.79903-7.025-2.01124-14.321-2.01124-21.567 0-.846 0-1.695 0-2.535 0-2.931.03484-5.881.08552-8.827 0-.764.03167-1.524.04751-2.291.04434-1.945.10769-3.891.19004-5.836.019-.542.04434-1.08.07284-1.619 0-.311.01584-.621.04751-.931.07602-1.128.13937-2.247.21538-3.362z" opacity=".1"/><path d="m68.3726 66.3073v39.4907h-24.1697v-39.4907h3.446v-13.3704h14.1452v13.3704z" opacity=".1"/><path d="m68.3726 107.151h-24.1665v43.828h24.1665z" opacity=".1"/><path d="m44.2029 152.338h24.1697v36.436c-2.8511.819-5.7564 1.437-8.6943 1.847l-.7221.089c-.3547.041-.7063.076-1.0547.111-.3484.034-.7095.06-1.0611.082h-.1108c-.1521 0-.3168.019-.4656.022h-.1616c-.19 0-.38.019-.5701.026-.2692.015-.5384.019-.814.022-.1172 0-.228 0-.3452 0-.2724 0-.5416 0-.814 0h-.5986c-.1616 0-.3167 0-.4846 0l-.6113-.022c-.3167 0-.6588-.035-.9882-.058l-.6081-.044-.757-.07c-.5321-.047-1.0611-.107-1.5837-.18l-.6334-.089-.3168-.044c-.5289-.083-1.0515-.171-1.5836-.273-.3896-.066-.776-.149-1.1688-.228z" opacity=".1"/><path d="m219.456 61.6435h-19.928v44.1515h19.928z" opacity=".1"/><path d="m219.46 107.151v43.831h-98.919v-18.906h52.689v11.153h26.298v-36.078z" opacity=".1"/><path d="m219.773 199.331h-.317v28.753c-3.568-.302-7.126-.713-10.674-1.233-15.97-2.339-31.539-6.883-46.261-13.503-4.251-1.914-8.415-4.003-12.492-6.267-6.811-3.775-13.336-8.043-19.523-12.772-1.554-1.191-3.088-2.41-4.602-3.656-1.049-.865-2.091-1.752-3.146-2.614-.731-.593-1.469-1.176-2.217-1.733v-33.968h78.724c-.054-.203-.108-.406-.165-.605.06.199.117.402.171.605h20.185v46.974c.108.003.212.013.317.019z" opacity=".1"/><path d="m271.432 58.3548h-12.986v-4.0365h5.821v-12.0239c.505.1838 1.008.3728 1.508.5671v11.4568h5.657z" opacity=".1"/><path d="m302.718 105.798h-63.751s0 0 .022.016l-.028-.016h-11.827v-44.1513h3.351v32.6341h15.314v-19.327h12.65v-15.2429h12.986v15.2556h12.65v19.327h18.633z" opacity=".1"/><path d="m227.134 107.151v43.831h75.584v-43.831zm96.102 95.424.105-34.693h-20.623v-15.525h-75.584v76.199c6.197.26 12.403.186 18.592-.222h.108c2.956-.186 5.898-.456 8.827-.811h.066c15.625-1.819 30.903-5.897 45.356-12.106" opacity=".1"/><path d="m332.355 152.338h17.632c-.155 8.9-1.941 17.641-5.85 25.714-3.253 6.708-7.772 12.572-13.112 17.695v-27.881h1.33z" opacity=".1"/><path d="m349.997 150.982h-17.642v-36.63h9.546c4.941 11.549 8.08 24.222 8.096 36.63z" opacity=".1"/><path d="m219.459 73.9178h-10.677v13.8425h10.677z" opacity=".1"/><path d="m219.459 102.611h-10.677v3.187h10.677z" opacity=".1"/><path d="m219.459 107.151h-10.677v9.299h10.677z" opacity=".1"/><path d="m219.459 131.303h-10.677v13.843h10.677z" opacity=".1"/><path d="m219.459 159.996h-10.677v13.842h10.677z" opacity=".1"/><path d="m219.456 199.312c.108 0 .213 0 .317.019h-.317v3.216h-10.674v-13.859h10.674z" opacity=".1"/><path d="m219.456 217.375v10.693c-3.568-.302-7.126-.713-10.674-1.233v-9.46z" opacity=".1"/><path d="m166.299 149.965h-45.758v1.017h45.758z" opacity=".1"/><path d="m166.299 152.335h-45.758v3.897h45.758z" opacity=".1"/><path d="m166.299 169.007h-45.758v6.267h45.758z" opacity=".1"/><path d="m166.296 188.048v6.267h-35.79c-1.554-1.187-3.09-2.405-4.606-3.656-1.048-.865-2.087-1.752-3.145-2.611z" opacity=".1"/><path d="m166.296 207.087v6.261h-3.778c-4.247-1.916-8.409-4.006-12.489-6.271z" opacity=".1"/><path d="m254.737 111.399h-9.008v9.011h9.008z" opacity=".1"/><path d="m59.7005 69.4155h-9.0078v9.0108h9.0078z" opacity=".1"/><path d="m59.7005 90.3458h-9.0078v9.0108h9.0078z" opacity=".1"/><path d="m59.7005 111.276h-9.0078v9.011h9.0078z" opacity=".1"/><path d="m59.7005 132.203h-9.0078v9.011h9.0078z" opacity=".1"/><path d="m59.7005 153.133h-9.0078v9.011h9.0078z" opacity=".1"/><path d="m59.7005 174.063h-9.0078v9.011h9.0078z" opacity=".1"/><path d="m289.124 111.399h-9.007v9.011h9.007z" opacity=".1"/><path d="m254.737 133.625h-9.008v9.011h9.008z" opacity=".1"/><path d="m289.124 133.625h-9.007v9.011h9.007z" opacity=".1"/><path d="m254.737 155.848h-9.008v9.011h9.008z" opacity=".1"/><path d="m289.124 155.848h-9.007v9.011h9.007z" opacity=".1"/><path d="m254.737 178.074h-9.008v9.011h9.008z" opacity=".1"/><path d="m289.124 178.074h-9.007v9.011h9.007z" opacity=".1"/><path d="m254.737 200.3h-9.008v9.011h9.008z" opacity=".1"/><path d="m289.124 200.3h-9.007v9.011h9.007z" opacity=".1"/><path d="m245.729 228.334v-5.811h9.005v4.984z" opacity=".1"/><path d="m5.70117 94.5342v5.1549h30.82743v-5.1549zm3.07229 4.8317h-2.51484v-4.5149h2.53384zm3.06914 0h-2.53387v-4.5149h2.53387zm3.0628 0h-2.5339v-4.5149h2.5339zm3.0691 0h-2.5307v-4.5149h2.5338zm3.0659 0h-2.5338v-4.5149h2.5338zm3.0692 0h-2.5339v-4.5149h2.5339zm3.0691 0h-2.5339v-4.5149h2.5339zm3.0659 0h-2.5338v-4.5149h2.5338zm3.066 0h-2.5339v-4.5149h2.5339zm3.0659 0h-2.5338v-4.5149h2.5338z" opacity=".1"/><path d="m5.70117 109.533v5.155h30.82743v-5.155zm3.07229 4.829h-2.51484v-4.502h2.53384zm3.06914 0h-2.53387v-4.502h2.53387zm3.0628 0h-2.5339v-4.502h2.5339zm3.0691 0h-2.5307v-4.502h2.5338zm3.0659 0h-2.5338v-4.502h2.5338zm3.0692 0h-2.5339v-4.502h2.5339zm3.0691 0h-2.5339v-4.502h2.5339zm3.0659 0h-2.5338v-4.502h2.5338zm3.066 0h-2.5339v-4.502h2.5339zm3.0659 0h-2.5338v-4.502h2.5338z" opacity=".1"/><path d="m5.70117 124.539v5.164h30.82743v-5.164zm3.07229 4.828h-2.51484v-4.505h2.53384zm3.06914 0h-2.53387v-4.505h2.53387zm3.0628 0h-2.5339v-4.505h2.5339zm3.0691 0h-2.5307v-4.505h2.5338zm3.0659 0h-2.5338v-4.505h2.5338zm3.0692 0h-2.5339v-4.505h2.5339zm3.0691 0h-2.5339v-4.505h2.5339zm3.0659 0h-2.5338v-4.505h2.5338zm3.066 0h-2.5339v-4.505h2.5339zm3.0659 0h-2.5338v-4.505h2.5338z" opacity=".1"/><path d="m5.70117 139.544v5.149h30.82743v-5.149zm3.07229 4.829h-2.51484v-4.509h2.53384zm3.06914 0h-2.53387v-4.509h2.53387zm3.0628 0h-2.5339v-4.509h2.5339zm3.0691 0h-2.5307v-4.509h2.5338zm3.0659 0h-2.5338v-4.509h2.5338zm3.0692 0h-2.5339v-4.509h2.5339zm3.0691 0h-2.5339v-4.509h2.5339zm3.0659 0h-2.5338v-4.509h2.5338zm3.066 0h-2.5339v-4.509h2.5339zm3.0659 0h-2.5338v-4.509h2.5338z" opacity=".1"/><path d="m5.83417 154.546c.12352.485.26288.97.40858 1.448v-1.125h2.53384v4.506h-1.3556c.04117.104.08235.218.12352.317h28.98399v-5.146zm6.01783 4.829h-2.5338v-4.506h2.5338zm3.0628 0h-2.5338v-4.506h2.5338zm3.0692 0h-2.5402v-4.506h2.5338zm3.0659 0h-2.5338v-4.506h2.5338zm3.0691 0h-2.5338v-4.506h2.5338zm3.0691 0h-2.5338v-4.506h2.5338zm3.066 0h-2.5338v-4.506h2.5338zm3.0659 0h-2.5338v-4.506h2.5338zm3.066 0h-2.5338v-4.506h2.5338z" opacity=".1"/><path d="m12.9922 169.551c.0792.102.1552.216.2376.317h1.6755v2.164c.1805.216.3579.431.5416.634v-2.81h2.5339v4.521h-1.0263c.1014.104.1996.215.3168.317h19.2667v-5.143zm8.0482 4.826h-2.5339v-4.502h2.5339zm3.0691 0h-2.5339v-4.502h2.5339zm3.0691 0h-2.5338v-4.502h2.5338zm3.066 0h-2.5339v-4.502h2.5339zm3.0659 0h-2.5338v-4.502h2.5338zm3.066 0h-2.5339v-4.502h2.5339z" opacity=".1"/><path d="m29.9025 184.554c.2883.164.5828.316.8805.481v-.158h2.5339v1.426l.5384.25v-1.676h2.5339v2.74c.0486.025.0995.044.152.057v-3.12z" opacity=".1"/><path d="m238.967 105.798h.019zm-19.511 93.511h.317zm-20.356-47.579c.06.202.111.405.168.605-.051-.2-.105-.403-.168-.605zm39.867-45.942h.019zm-191.3054-47.4426v1.3529h14.1484v-1.3529zm171.7944 140.9636h.317zm-20.356-47.579c.06.202.111.405.168.605-.051-.2-.105-.403-.168-.605zm39.867-45.942h.019zm-19.511 93.511h.317zm-20.356-47.569c.06.202.111.405.168.605-.051-.2-.105-.403-.168-.605z" opacity=".1"/></g><path d="m146.203 120.293s-1.248-.174-1.248-1.993c0-1.818-.893-5.215-.893-5.215 0-.016-.773-5.915-1.84-6.853-1.068-.938-2.439-6.4445-2.439-6.4445s-.235-2.9878-.713-3.631-1.124-2.2178-2.078-4.4642c-.953-2.2464-4.928-3.802-4.928-3.802s-7.187-4.1696-9.223-5.5288c-.185-.1117-.358-.2423-.516-.3897-.355-.4658-1.901-.4753-1.901-.4753-.161-1.0202-.317-2.1925-.367-3.2539 0-.114 0-.2281-.016-.3422 2.271-1.3428 3.981-3.46 4.817-5.9628.038-.1204.07-.2471.105-.3675.136-.0449.261-.1176.368-.2136.106-.0961.191-.2132.25-.3441.183-.4087.186-.8871.414-1.2673.267-.4499.773-.6907 1.172-1.0297 1.008-.8555 1.267-2.2971 1.22-3.6088-.032-1.0614-.203-2.1323-.136-3.1874l.019-.2661c.019-.1584.041-.3168.069-.4689.155-.7858.494-1.5272.684-2.3066s.209-1.657-.234-2.3287c-.649-.9854-2.002-1.1818-3.189-1.2832-1.347-.1141-2.55.0348-3.412-1.0836-.403-.5845-.856-1.1326-1.355-1.638-.178-.1648-1.901-1.2167-1.901-1.2864-1.681-.7791-3.587-.9253-5.368-.4119-.893.2598-1.736.6844-2.642.8967-1.954.4626-4.203-.038-5.862 1.0804-.925.6337-1.48 1.6412-1.999 2.6234-.422.809-.851 1.6169-1.286 2.4238-.7 1.3275-1.413 2.6772-1.707 4.1474-.062.3199-.1002.6439-.1141.9695v.0158.3517.1489c0 .1109 0 .2186.019.3169.019.0982.0158.1299.0253.1964.0098.0665.0258.2154.0448.3168s.057.2789.095.4183c.015.0602.038.1172.057.1742.031.1077.069.2123.11.3169.023.0538.045.1108.07.1647.048.1109.105.2186.162.3168.025.0444.044.0856.069.1268.089.1473.186.2891.292.4245.678.846 1.675 1.3846 2.413 2.1767v.0919.263c.039 1.7665.509 3.4967 1.369 5.0401.86 1.5433 2.084 2.8531 3.566 3.8154 0 .1204.016.244.022.3644.062.9405.05 1.8843-.035 2.823-.129-.152-.29-.273-.472-.3542-.182-.0811-.38-.1204-.579-.1147-.136-.0067-.273.005-.406.0348l-.028-.0222v.0286c-.697.171-1.555.8966-2.376 2.9592 0 0-2.496 2.8135-4.396 2.6963-1.9003-.1173-6.7115 2.9275-6.7115 2.9275s-4.6939 3.048-5.7011 6.153c-.563 1.7607-1.238 3.4836-2.0208 5.1585l-5.8025 11.96-1.0705 9.489s.5922 4.221.4751 4.864c-.1172.643 2.4356 6.444 2.4356 6.444s8.4346 14.825 11.8806 15.585l.247-.174c.1475.077.3039.136.4656.174l.7095-.5c.0426.558.0246 1.119-.0538 1.673-.4751 1.463.1773 11.016 1.0072 12.889.8298 1.872.5352 26.424.5352 26.424l-.1172 2.167s0 .069.0286.19l-.0286.513.0856.045c.0888.687.0598 1.384-.0856 2.062-.2977.951-.418 3.637-.418 3.637s-2.3724 15.17-1.248 18.218 2.081 6.388 2.081 6.388 1.1877 3.802.057 4.451c-1.1308.65-4.3456 1.74-3.6836 3.324.6018 1.464 2.8854 5.386 3.2243 5.96l-.0285.301-.4656 5.047c.0754.666.2561 1.317.5353 1.926.5099 1.1 1.5013 2.24 3.3858 2.117.3169-.022.6839-.06 1.0389-.108 3.449-.463 7.697-2.002 7.697-2.002-.221-.141-.423-.308-.602-.498-.17-.164-.304-.361-.395-.579s-.137-.452-.134-.688c.051-.919-1.669-5.298-2.097-6.375-.066-.155-.101-.244-.101-.244s3.921-4.1 3.268-7.734c0 0-4.339-2.535-2.91-3.925 1.428-1.391 3.981-5.387 3.981-5.387s.117-14.938 0-17.169c-.122-1.548-.049-3.106.218-4.635.048-.232.105-.457.165-.678 1.976.295 3.97.446 5.967.453.729 0 1.47 0 2.218-.045 0 .212.009.44.028.685.165 3.7.472 10.189.722 12.6.355 3.457 2.315 12.772 2.315 12.772s-3.74 2.402.653 8.32c0 0 0 2.145-.291 2.456-.312 1.015-.562 2.047-.751 3.092-.184 1.115-.26 2.243.038 2.829.713 1.401 4.988 1.287 4.988 1.287l.105-.019c.807-.084 1.623-.006 2.4.228.777.235 1.5.621 2.126 1.137 1.625 1.305 7.792.732 11.13.317 1.308-.165 2.182-.317 2.182-.317.043-.148.058-.303.045-.456-.035-.821-.678-2.62-5.036-4.227 0 0-4.099-2.756-4.042-5.158h-.085-.476c.346-.019.567 0 .567 0s-1.605-5.861-.95-6.337c.656-.475-1.308-6.97-1.308-6.97s-1.124-10.899-1.184-11.663c.002-.655.101-1.306.294-1.932l-.294-5.976s-.058-1.986 0-2.633c-.01-.561-.056-1.121-.137-1.676-.028-.222-.057-.453-.088-.681 1.536-.39 2.533-.751 2.533-.751l-.177-20.8c1.305-2.535 1.546-8.095 1.539-12.04 0-2.535-.114-4.41-.114-4.41l1.784-2.912s.411-3.485-.241-4.249c-.288-.345-.158-.703.079-.998.123-.098.254-.187.39-.266 0 0-.019-.028-.042-.07.125-.104.257-.198.396-.282 0 0-.633-.982-.066-1.397.532.361 1.007.634 1.368.856-.025.231-.051.364-.051.364l.152-.317c.349.197.561.317.561.317s2.794-5.567 2.733-6.387c-.06-.821 1.901-4.278 1.901-4.278s.237-1.815 1.308-2.576c1.071-.76.83-6.27.83-6.27s.298-2.87 1.01-4.043c.713-1.172-.649-2.753-.649-2.753zm-53.4516-2.443.0538 1.328c-.3167-.51-.5447-.878-.5447-.878z" fill="url(#b)"/><path d="m139.222 144.195-.684 2.915s-5.479-2.798-6.468-6.353c-.988-3.554 1.654-4.904 1.654-4.904l5.105 2.164z" fill="#fff"/><path d="m139.222 144.195-.684 2.915s-5.479-2.798-6.468-6.353c-.988-3.554 1.654-4.904 1.654-4.904l5.105 2.164z" fill="#000" opacity=".1"/><path d="m108.471 243.399s-5.068 1.863-8.552 2.098c-1.8497.124-2.8221-1.011-3.3225-2.104-.2734-.607-.4498-1.254-.5226-1.917l.4529-5.022.2407-2.674 7.4015-1.923 1.049 3.207.098.244c.421 1.07 2.109 5.427 2.059 6.336-.002.233.043.464.132.679s.221.41.387.573c.17.191.364.361.577.503z" fill="#fff"/><path d="m143.086 240.846c.013.152-.002.306-.044.453 0 0-10.839 1.809-13.056 0-.625-.529-1.353-.921-2.139-1.151-.785-.23-1.61-.294-2.422-.186 0 0-4.193.114-4.893-1.267-.292-.58-.215-1.705-.035-2.814.184-1.039.43-2.066.735-3.076l.168-.134.997-.801 11.681-.345h.089c-.057 2.388 3.966 5.129 3.966 5.129 4.272 1.584 4.903 3.374 4.953 4.192z" fill="#fff"/><path d="m143.086 240.846c.011.152-.005.306-.047.453 0 0-10.836 1.809-13.053 0-.624-.528-1.353-.92-2.137-1.15-.785-.23-1.61-.294-2.42-.187 0 0-4.197.114-4.894-1.267-.291-.583-.219-1.705-.038-2.814 1.615.162 4.165.564 5.166 1.524 1.514 1.461 4.079 2.918 5.654 3.032 1.232.079 8.602.314 11.769.409z" fill="#000" opacity=".1"/><path d="m108.471 243.4s-5.068 1.863-8.552 2.097c-1.8497.124-2.8221-1.011-3.3193-2.107 1.2891.434 3.0786.89 4.0193.472 1.115-.494 5.068-.814 7.285-.95.169.184.359.348.567.488z" fill="#000" opacity=".1"/><path d="m115.99 93.2668c-4.181-1.6253-9.559-6.9957-8.216-9.505.298-.6333.475-1.3167.523-2.0151.086-.9481.099-1.9015.038-2.8515-.095-1.556-.282-3.1049-.561-4.6385 0 0 13.052.2947 12.292 2.2179-.221.5639-.256 1.5429-.196 2.6392.06 1.0962.218 2.3351.383 3.3838.228 1.4384.456 2.5347.456 2.5347s-.798 1.1184-1.267 1.1786c-.468.0602 2.547 9.372-3.452 7.0559z" fill="#cf6f80"/><path d="m105.307 235.308-.099.107c-3.902-4.721-8.621 1.163-8.621 1.163l-.0697-.124.2408-2.674 7.4019-1.923 1.048 3.207z" fill="#000" opacity=".1"/><path d="m134.17 231.857s-2.85-.06-4.371 1.283c-1.52 1.344-8.868.292-8.551 0 .094-.144.15-.309.164-.481l.998-.802 11.681-.345c.044.212.079.345.079.345z" fill="#000" opacity=".1"/><path d="m110.162 194.784c-.212.525-.373 1.07-.481 1.626-.264 1.522-.338 3.072-.219 4.613.117 2.218 0 17.08 0 17.08s-2.505 3.964-3.902 5.361 2.851 3.907 2.851 3.907c.633 3.612-3.206 7.693-3.206 7.693-3.902-4.721-8.6211 1.165-8.6211 1.165s-2.5656-4.435-3.2054-6.019c-.6398-1.585 2.5054-2.681 3.6108-3.324s-.0539-4.436-.0539-4.436-.9343-3.323-2.0429-6.355c-1.1085-3.033 1.2226-18.127 1.2226-18.127s.1204-2.68.4086-3.615c.1454-.674.1743-1.369.0855-2.053-.019-.231-.0412-.424-.057-.554-.0159-.13-.0285-.19-.0285-.19l.0443-.076 1.5837-2.953s12.7703 4.397 12.0103 6.257z" fill="#0abab5"/><path d="m134.17 231.509s-2.85-.061-4.371 1.267c-1.52 1.328-8.868.291-8.551 0 .316-.292.291-2.449.291-2.449-4.311-5.887-.633-8.276-.633-8.276s-1.926-9.267-2.274-12.705c-.244-2.402-.545-8.856-.707-12.54-.069-1.585-.111-2.674-.111-2.674l3.522-.71.453-.092 8.495-1.705s.234 1.585.393 2.88c.079.554.123 1.111.133 1.67-.057.634 0 2.617 0 2.617l.288 5.947c-.188.624-.285 1.272-.288 1.923.057.758 1.162 11.6 1.162 11.6s1.923 6.47 1.267 6.935c-.656.466.931 6.312.931 6.312z" fill="#0abab5"/><path d="m120.066 76.4746c-.221.5639-.256 1.5429-.196 2.6392-1.748 1.0531-3.758 1.5916-5.799 1.5535-2.04-.0381-4.029-.6513-5.736-1.769-.094-1.557-.282-3.107-.561-4.6416 0 0 13.052.2883 12.292 2.2179z" fill="#000" opacity=".1"/><path d="m125.112 69.4725c.002 1.1418-.177 2.2766-.532 3.3617-.794 2.4313-2.421 4.5037-4.594 5.8509-2.174 1.3472-4.753 1.8825-7.283 1.5113-2.529-.3712-4.846-1.625-6.541-3.5398s-2.659-4.3674-2.721-6.9242c0-.0888 0-.1711 0-.2599-.025-1.4391.238-2.8688.771-4.2056.534-1.3368 1.328-2.5539 2.337-3.5804s2.211-1.8418 3.538-2.3983c1.328-.5565 2.752-.8431 4.191-.8431s2.863.2866 4.19.8431 2.53 1.3718 3.539 2.3983 1.803 2.2436 2.337 3.5804c.533 1.3368.796 2.7665.771 4.2056z" fill="#cf6f80"/><path d="m115.99 93.267c-4.181-1.6254-9.559-6.9958-8.216-9.5051.298-.6333.475-1.3167.523-2.0151l5.723 4.705 3.541 2.9054 2.692-6.8563c.228 1.4384.456 2.5346.456 2.5346s-.798 1.1185-1.267 1.1787c-.468.0602 2.547 9.3688-3.452 7.0528z" fill="#000" opacity=".1"/><path d="m130.791 114.061-4.78 80.318-6.233.408-16.141-46.571 2.648-55.2912.558-11.6817 7.177 5.8963 3.544 2.9054 2.771-7.0559 5.154 4.4927z" fill="#0abab5"/><path d="m110.162 194.784c-.212.525-.373 1.07-.481 1.626-4.536-.701-8.941-2.077-13.0686-4.084l-.0855-.045.0285-.51.0158-.266 1.5837-2.953s12.7671 4.373 12.0071 6.232z" fill="#000" opacity=".1"/><path d="m121.409 196.422c-1.159.198-2.329.331-3.503.4-.07-1.585-.111-2.675-.111-2.675l3.522-.709z" fill="#000" opacity=".1"/><path d="m130.658 194.521c-2.252.587-5.73 1.246-8.843.834l-.045-2.009 8.495-1.705s.234 1.569.393 2.88z" fill="#000" opacity=".1"/><path d="m121.758 195.722c-12.986 2.218-24.8796-4.141-24.8796-4.141l.114-2.154s.2946-24.425-.5226-26.298c-.8171-1.872-1.4538-11.368-.9913-12.825.4624-1.458-1.6882-23.313-1.6882-23.313l-.3484-8.872-12.7516-5.167 5.7012-11.888c.77-1.6665 1.4323-3.3809 1.9827-5.1325.9914-3.086 5.5935-6.1181 5.5935-6.1181s4.7192-3.029 6.5843-2.9149c1.866.1141 4.311-2.6804 4.311-2.6804 1.806-4.6036 3.44-2.5189 3.44-2.5189 0 .2186 0 0-.089.6812-.633 5.0536 10.243 21.0216 10.398 21.3036l1.036 25.24 1.049 31.94z" fill="#000" opacity=".1"/><path d="m121.409 195.722c-12.986 2.218-24.8822-4.141-24.8822-4.141l.1172-2.154s.2946-24.425-.5258-26.298c-.8203-1.872-1.4537-11.368-.9881-12.825.4655-1.458-1.6882-23.313-1.6882-23.313l-.3516-8.871-12.7579-5.187 5.7011-11.888c.7684-1.6671 1.4306-3.3815 1.9828-5.1325.9882-3.0859 5.5934-6.1181 5.5934-6.1181s4.7193-3.0289 6.5813-2.9148c1.863.114 4.311-2.6805 4.311-2.6805 1.809-4.6036 3.801-2.5188 3.801-2.5188 0 .2186-.19.3168-.089.6812 1.394 4.9014 9.895 21.0225 10.05 21.3045l1.048 25.239 1.049 31.94z" fill="#fff"/><path d="m117.909 104.385c-1.396-.583-8.795-9.0332-8.795-9.0332v-1.9232c-.269-.6337-1.869-.2471-3.168.1964l.558-11.6817.633.5259c1.388 4.8983 10.611 21.6338 10.772 21.9158z" fill="#000" opacity=".1"/><path d="m118.261 103.685c-1.4-.583-8.799-9.0335-8.799-9.0335v-1.9232c-.269-.6336-1.869-.2471-3.167.1965l.56-11.6818.634.526c1.39 4.8983 10.617 21.637 10.772 21.916z" fill="#fff"/><path d="m96.8784 145.827c.1742 0 9.0296-.932 9.0296-.932s5.363 10.548 5.011 13.114c-.351 2.566-.988 4.838-3.145 4.436-2.157-.403-11.6082.317-11.6082.317z" fill="#000" opacity=".1"/><path d="m96.5269 145.127c.1742 0 9.0301-.932 9.0301-.932s5.359 10.551 5.011 13.114c-.349 2.563-.992 4.838-3.146 4.436-2.153-.403-11.6078.317-11.6078.317z" fill="#fff"/><path d="m103.2 140.174s8.128 4.37 8.302 5.704c.174 1.333-4.137-.583-5.068-.815-.613-.147-1.237-.245-1.865-.291l-6.2115.168z" fill="#cf6f80"/><path d="m115.641 104.93c.473 0 .856-.383.856-.856 0-.472-.383-.855-.856-.855-.472 0-.855.383-.855.855 0 .473.383.856.855.856z" fill="#000" opacity=".1"/><path d="m115.641 104.581c.473 0 .856-.383.856-.855 0-.473-.383-.856-.856-.856-.472 0-.855.383-.855.856 0 .472.383.855.855.855z" fill="#3f3d56"/><path d="m117.216 141.961c.472 0 .855-.383.855-.855s-.383-.855-.855-.855c-.473 0-.856.383-.856.855s.383.855.856.855z" fill="#000" opacity=".1"/><path d="m117.216 141.61c.472 0 .855-.383.855-.856 0-.472-.383-.855-.855-.855-.473 0-.856.383-.856.855 0 .473.383.856.856.856z" fill="#3f3d56"/><path d="m116.494 123.446c.472 0 .855-.383.855-.856 0-.472-.383-.855-.855-.855-.473 0-.856.383-.856.855 0 .473.383.856.856.856z" fill="#000" opacity=".1"/><path d="m116.494 123.097c.472 0 .855-.383.855-.856 0-.472-.383-.855-.855-.855-.473 0-.856.383-.856.855 0 .473.383.856.856.856z" fill="#3f3d56"/><path d="m136.207 144.594s.583.875 0 1.284c-.583.408.057 1.397.057 1.397s-1.454.852-.814 1.619.234 4.23.234 4.23l-1.748 2.895s.104 1.867.111 4.389c0 3.935-.231 9.467-1.511 11.989l.177 20.692s-6.122 2.237-11.247 1.556l-.76-33.205s1.109-18.829 1.517-22.441c.239-1.875.337-3.766.292-5.656 0 0-.175-5.652-.761-8.275 0 0-.633-11.365-.696-14.511-.029-1.505.05-5.897.139-10.073.098-4.5651.209-8.8709.209-8.8709l-1.156-9.1502s1.156-.1173 1.504.3485c.156.1458.326.2763.507.3897 1.996 1.3497 9.046 5.5002 9.046 5.5002s3.902 1.5525 4.836 3.7767c.935 2.2242 1.584 3.8021 2.037 4.4357.453.6337.7 3.6123.7 3.6123s1.343 5.481 2.391 6.409c1.049.929 1.815 6.834 1.815 6.834l-9.264 7.288s-.814 12.122-.988 12.591c-.175.469 3.373 10.946 3.373 10.946z" fill="#fff"/><path d="m136.558 144.594s.58.875 0 1.284c-.579.408.054 1.397.054 1.397s-1.444.862-.811 1.628c.634.767.235 4.23.235 4.23l-1.749 2.896s.105 1.866.114 4.388c0 3.935-.231 9.467-1.51 11.989l.174 20.693s-6.132 2.237-11.25 1.555l-.757-33.204s1.108-18.829 1.517-22.441c.239-1.876.335-3.766.288-5.656 0 0-.174-5.652-.757-8.276 0 0-.633-11.365-.7-14.511-.028-1.505.054-5.896.139-10.072.099-4.5656.209-8.8714.209-8.8714l-1.526-9.2738s1.526 0 1.878.4721c.155.1476.324.2782.507.3897 1.995 1.3498 9.049 5.5003 9.049 5.5003s3.899 1.5525 4.833 3.7767 1.584 3.802 2.04 4.4357.697 3.6117.697 3.6117 1.343 5.481 2.391 6.41c1.048.928 1.805 6.821 1.805 6.821l-9.264 7.288s-.814 12.122-.991 12.591c-.178.468 3.385 10.949 3.385 10.949z" fill="#fff"/><path d="m125.463 94.3124.837 2.4397-4.403 4.4359c.098-4.5627.209-8.8716.209-8.8716l-1.527-9.2738s1.527 0 1.879.4721c.154.1471.324.2768.506.3865l3.744 10.8041z" fill="#000" opacity=".1"/><path d="m125.112 93.6123.839 2.4397-4.402 4.436c.098-4.5659.209-8.8717.209-8.8717l-1.53-9.2738s1.53 0 1.878.4721c.155.1467.325.2772.507.3897l3.747 10.8009z" fill="#fff"/><path d="m125.112 69.4726c.002 1.1417-.177 2.2765-.532 3.3616-.06.0093-.121.0066-.18-.0081s-.114-.041-.162-.0775c-.083-2.8515-1.486-5.5287-3.212-7.8068-.485-.6878-1.072-1.2969-1.742-1.806-.677-.5088-1.52-.7471-2.363-.6685-.95.1299-1.789.7763-2.749.8586-1.267.1046-2.401-.773-3.658-.8174-.512.0049-1.016.1187-1.48.334-.463.2153-.876.527-1.209.9143-.661.7818-1.152 1.6924-1.442 2.6741-.498 1.4887-.769 3.0438-.804 4.6132-.016.8871-.101 1.9992-.925 2.3224.062-.6525-.012-1.3107-.218-1.933-.205-.6222-.538-1.1951-.976-1.6821l-.019-.019c0-.0887 0-.1711 0-.2598-.025-1.4392.238-2.8689.771-4.2057.534-1.3368 1.328-2.5539 2.337-3.5804s2.211-1.8418 3.538-2.3983c1.328-.5565 2.752-.8431 4.191-.8431s2.863.2866 4.19.8431 2.53 1.3718 3.539 2.3983 1.803 2.2436 2.337 3.5804c.533 1.3368.796 2.7665.771 4.2057z" fill="#000" opacity=".1"/><path d="m118.764 52.2588c-1.645-.7745-3.517-.9209-5.264-.4119-.877.2598-1.704.6812-2.594.8935-1.9.4594-4.117-.038-5.748 1.0741-.906.6336-1.451 1.6348-1.958 2.6075l-1.267 2.4143c-.69 1.3212-1.387 2.6646-1.675 4.1189-.2883 1.4542-.114 3.0828.808 4.2519.671.8523 1.662 1.3877 2.391 2.1893.436.4876.767 1.0601.972 1.6816.205.6216.28 1.2787.219 1.9304.826-.3169.906-1.4321.925-2.3193.035-1.5693.306-3.1245.804-4.6131.289-.982.78-1.8928 1.441-2.6741.334-.3871.747-.6985 1.21-.9138.464-.2152.968-.3293 1.479-.3345 1.267.0443 2.404.9188 3.659.8142.95-.0792 1.792-.7287 2.749-.8554.843-.0798 1.686.1586 2.363.6685.669.5083 1.256 1.1175 1.738 1.806 1.73 2.278 3.133 4.9489 3.215 7.8068.358.263.874-.0792 1.052-.4848.177-.4055.183-.8808.408-1.2673.26-.4467.757-.6844 1.147-1.0202.988-.8523 1.235-2.2876 1.197-3.5898-.038-1.3021-.291-2.6234-.044-3.9034.149-.7857.484-1.5208.668-2.297.184-.7763.206-1.6476-.228-2.3161-.633-.9822-1.967-1.1755-3.129-1.2673-1.321-.1141-2.502.0316-3.345-1.0805-.395-.5803-.84-1.1252-1.33-1.6285-.168-.1647-1.863-1.2103-1.863-1.28z" fill="#512e4e"/><path d="m84.339 119.073-3.3098-6.121-1.0484 9.445s.5828 4.195.4656 4.838 2.3882 6.409 2.3882 6.409 8.2761 14.746 11.6557 15.506l11.4177-8.161-3.028-3.847s-1.048-.408-1.311 0c0 0-5.6218-9.676-6.2046-10.376s-.4687-2.097-.4687-2.097-.8742-.932-.5828-1.806c.2914-.875-1.6882-3.907-1.6882-3.907l1.8054-1.689z" fill="#000" opacity=".1"/><path d="m81.2034 112.255-.8741.697-1.0484 9.445s.5828 4.195.4656 4.838 2.3913 6.409 2.3913 6.409 8.273 14.746 11.6525 15.506l11.4217-8.161-3.031-3.847s-1.049-.408-1.312 0c0 0-5.6217-9.676-6.2045-10.376s-.4656-2.098-.4656-2.098-.8742-.931-.5828-1.805c.2914-.875-1.6913-3.907-1.6913-3.907l1.8053-1.689z" fill="#fff"/><path d="m135.45 149.255c.633.77.234 4.227.234 4.227l-1.748 2.895s.104 1.87.111 4.389l-2.94.918c-.265.083-.547.102-.821.054s-.533-.161-.754-.33c-.222-.168-.4-.387-.52-.638s-.178-.528-.169-.806l.507-16.352 6.857 2.623c-.583.406.057 1.401.057 1.401s-1.454.849-.814 1.619z" fill="#000" opacity=".1"/><path d="m135.801 148.903c.634.77.235 4.23.235 4.23l-1.749 2.896s.105 1.866.114 4.388l-2.993.935c-.26.081-.536.098-.804.051s-.521-.158-.738-.323-.391-.379-.509-.625c-.117-.246-.174-.516-.166-.789l.51-16.402 6.861 2.623c-.586.406.053 1.397.053 1.397s-1.447.853-.814 1.619z" fill="#fff"/><path d="m138.072 141.109s-.465 2.975-1.631 3.149c-1.165.175-1.688 4.813-2.85 4.648-1.163-.164-.393-4.312-.352-5.116.041-.805-1.267-4.138-.288-4.896.979-.757 4.076 0 4.076 0z" fill="#cf6f80"/><path d="m140.552 118.199 2.198-4.436s.875 3.381.875 5.187 1.222 1.983 1.222 1.983 1.34 1.584.634 2.737c-.707 1.154-.992 4.024-.992 4.024s.232 5.478-.817 6.236c-1.048.757-1.267 2.566-1.267 2.566s-1.926 3.438-1.865 4.255c.06.817-2.68 6.353-2.68 6.353s1.34-6.879-6.467-9.851c0 0-.061-2.335.522-2.975s1.492-.931.922-4.166-.165-7.101-.165-7.877 1.748-5.617 1.748-5.617z" fill="#000" opacity=".1"/><path d="m141.503 113.129 1.919.634s.877 3.381.877 5.187 1.223 1.983 1.223 1.983 1.34 1.584.633 2.737c-.706 1.154-.988 4.024-.988 4.024s.231 5.478-.817 6.236c-1.048.757-1.283 2.566-1.283 2.566s-1.922 3.438-1.862 4.255c.06.818-2.683 6.353-2.683 6.353s1.343-6.879-6.467-9.851c0 0-.058-2.335.525-2.975s1.492-.931.922-4.166-.165-7.101-.165-7.877 1.749-5.617 1.749-5.617z" fill="#fff"/><path d="m99.1082 228.099s3.0598-1.923 5.0678-.525c2.008 1.397-5.0678.525-5.0678.525z" fill="#000" opacity=".1"/><path d="m122.882 222.153s2.708-.349 4.982 2.1-4.982-2.1-4.982-2.1z" fill="#000" opacity=".1"/><g fill="#000" opacity=".1"><path d="m126.844 68.9277c-.389.3358-.89.5766-1.15 1.0234-.221.3834-.228.8554-.405 1.2673s-.694.7478-1.052.488c-.082-2.8516-1.488-5.5288-3.214-7.81-.483-.6885-1.07-1.2977-1.739-1.806-.678-.5098-1.522-.7482-2.366-.6685-.95.1299-1.787.7762-2.746.8554-1.267.1078-2.404-.7699-3.662-.8142-.511.005-1.015.1193-1.478.3352-.463.2158-.875.5282-1.207.9163-.662.7801-1.153 1.6898-1.442 2.6709-.497 1.4887-.769 3.0438-.804 4.6131-.019.884-.101 1.9866-.919 2.3161.019.234.019.4693 0 .7033.824-.3168.906-1.4321.925-2.3192.036-1.5694.307-3.1245.805-4.6131.289-.982.78-1.8928 1.441-2.6741.333-.387.745-.6985 1.208-.9137.463-.2153.967-.3293 1.478-.3346 1.267.0443 2.407.9188 3.661.8142.95-.0792 1.793-.7287 2.746-.8554.845-.0797 1.688.1587 2.366.6685.67.5083 1.256 1.1175 1.739 1.806 1.726 2.278 3.132 4.9489 3.215 7.8068.358.263.874-.0792 1.051-.4848.178-.4055.184-.8808.406-1.2673.26-.4468.76-.6844 1.15-1.0202.988-.8523 1.235-2.2876 1.197-3.5898 0-.0412 0-.0823 0-.1204-.06 1.128-.361 2.2781-1.204 3.0068z" opacity=".1"/><path d="m103.463 68.7027c-.728-.8016-1.723-1.3371-2.391-2.1862-.563-.7517-.884-1.6565-.922-2.5949-.1 1.1726.228 2.3417.922 3.2919.668.8523 1.663 1.3878 2.391 2.1894.7.784 1.12 1.7779 1.194 2.8261.049-.6379-.032-1.279-.237-1.885-.205-.6059-.531-1.1642-.957-1.6413z" opacity=".1"/><path d="m128.665 59.1374c-.186.7763-.519 1.5145-.671 2.2971-.09.5229-.123 1.0541-.098 1.5842.01-.302.043-.6027.098-.8998.152-.7858.485-1.5209.671-2.2971.109-.4281.145-.8717.105-1.3117-.02.2114-.055.421-.105.6273z" opacity=".1"/></g><path d="m42.0397 240.982c17.0447 0 30.8622-2.22 30.8622-4.958 0-2.739-13.8175-4.959-30.8622-4.959-17.0448 0-30.8623 2.22-30.8623 4.959 0 2.738 13.8175 4.958 30.8623 4.958z" fill="#0abab5" opacity=".1"/><path d="m43.0342 141.036h-1.9859v44.728h1.9859z" fill="#535461"/><path d="m55.5134 185.628-.1236 2.015-.1773 2.851-.0729 1.185-.1742 2.852-.076 1.185-.1774 2.851-2.0017 32.34c-.087 1.391-.7008 2.697-1.7164 3.652s-2.3567 1.486-3.7504 1.487h-10.4077c-1.3934-.001-2.7341-.533-3.7492-1.487-1.0151-.955-1.6282-2.261-1.7144-3.652l-1.9923-32.362-.1773-2.851-.0729-1.185-.1774-2.852-.0728-1.185-.1774-2.851-.1267-2.015c-.022-.388.0355-.777.1688-1.141.1334-.365.3399-.699.6068-.981s.5887-.507.9455-.66.7412-.232 1.1295-.232h21.2875c.3868.004.7689.086 1.1226.243s.6716.385.934.669c.2623.284.4636.62.5915.985.1278.365.1795.753.1518 1.139z" fill="#3f3d56"/><path d="m55.3899 187.643-.1774 2.842h-26.3456l-.1774-2.842z" fill="#9d9cb5"/><path d="m55.1396 191.67-.1742 2.845h-25.8483l-.1774-2.845z" fill="#9d9cb5"/><path d="m54.8894 195.703-.1742 2.842h-25.348l-.1773-2.842z" fill="#9d9cb5"/><path d="m25.6583 157.8c11.5638 8.371 16.3908 21.463 16.3908 21.463s-13.9361-.479-25.5031-8.85c-11.56703-8.37-16.384501-21.459-16.384501-21.459s13.929801.475 25.496801 8.846z" fill="#0abab5"/><path d="m.152039 148.954s14.468261 8.032 19.108361 14.682c4.6401 6.651 22.7888 15.627 22.7888 15.627" stroke="#535461" stroke-miterlimit="10" stroke-width="2"/><path d="m33.1237 140.938c6.2934 4.553 8.9255 11.679 8.9255 11.679s-7.5857-.26-13.8823-4.813-8.9223-11.682-8.9223-11.682 7.5825.26 13.8791 4.816z" fill="#0abab5"/><path d="m19.2446 136.122s7.8739 4.373 10.3982 7.991c2.5244 3.618 12.4064 8.504 12.4064 8.504" stroke="#535461" stroke-miterlimit="10" stroke-width="2"/><path d="m51.1869 152.255c-7.231 7.95-8.7608 18.339-8.7608 18.339s10.1955-2.503 17.4202-10.456c7.2246-7.952 8.7607-18.338 8.7607-18.338s-10.1892 2.506-17.4201 10.455z" fill="#0abab5"/><path d="m68.6134 141.803s-9.4196 8.149-11.8141 13.763c-2.3945 5.615-14.3732 15.028-14.3732 15.028" stroke="#535461" stroke-miterlimit="10" stroke-width="2"/><path d="m316.626 149.458s-5.229-26.025-3.227-29.263c0 0 .072-3.01-.048-6.847 0-.146 0-.291 0-.44.352.234.719.446 1.099.633 1.844.948 3.962 1.222 5.986.773l-1.583-1.764c-.38-.422-.776-.878-.859-1.436-.082-.557.146-1.055.342-1.552 1.505-3.802 1.584-8.583-1.314-11.4855-2.448-2.4396-3.044-5.5889-5.701-7.8163-1.942-1.6317-3.009-4.0238-4.016-6.3367-.852-1.9549-1.711-3.9256-2.198-5.9977-.38-1.6191-.533-3.2951-1.055-4.8761-.523-1.581-1.501-3.1177-3.031-3.8242-.545-.2503-1.15-.3929-1.647-.7256-.653-.4404-1.045-1.1564-1.517-1.7838-2.398-3.1683-10.427-1.3022-14.228-.0158-1.033.3239-1.99.8542-2.812 1.5588l.034-.057c.029-.0475.064-.0951.095-.1426-.416.3365-.775.7377-1.064 1.1882-.554.8776-.785 1.901-1.248 2.8515-.557 1.1247-3.658 4.2646-2.325 5.5288.094.0849.201.1534.317.2027.501.2084 1.052.2636 1.584.1584l-.057.1363c-.456 1.1154-.689 2.3089-.687 3.5137 0 5.2056 4.291 9.4259 9.59 9.4259.996.0009 1.987-.1519 2.936-.4531.022.1204.041.2408.064.3612 0 .0475.015.095.022.1426l-.168.2344c-.009-.0144-.018-.0282-.029-.0412l-4.972 6.9514c-.76.5355-5.138 3.7037-5.385 6.0797-.259 2.602-.519 5.646-.519 5.646l-.035.653c-.217.182-.471.314-.745.388-.273.074-.559.087-.839.04-1.552-.254-1.552 5.703-1.552 5.703s-1.032.95-1.742.127c-.709-.824-2.584 1.967-2.584 1.967l-11.751.507-.269.016-.634-1.961c-.068-.207-.215-.379-.409-.478s-.419-.117-.626-.051c-.049.016-.097.036-.143.06l-.044.025-.082.057-.042.038c-.022.021-.044.043-.063.067l-.038.044-.019.019c-.073.101-.122.218-.141.341-.02.124-.011.25.027.369l.545 1.682c-2.268.456-4.587 1.743-2.696 5.285l-9.584-1.771 3.101 2.604 16.007 3.305c-.212.38-.072.931.59 1.708 2.85 3.349 8.044 4.258 10.135 4.492.552 1.236 1.242 2.405 2.056 3.486l-.181 3.336s-5.293 25.429-6.262 26.719c.489-.555.937-1.145 1.34-1.765-1.536 5.224-3.684 12.375-4.247 13.446-.906 1.711-1.746 8.634-.713 9.078.317.136 1.223.069 2.515-.029v.574l-.057 21.731s.26 13.33-.453 14.6c-.713 1.271-.903 3.935-.903 3.935s-2.85 5.257-5.109 7.37c-.015.016-.032.031-.05.044l-.07-.494s-2.714 3.428-8.72 3.235c0 0-3.614 2.351 1.746 2.477 5.359.127 12.203-.19 12.203-.19s4.78-7.287 8.783-6.336v5.522h1.226v-5.611c.568-.374 1.055-.86 1.43-1.428s.631-1.207.752-1.877c.105-.69.028-1.396-.223-2.048s-.667-1.227-1.208-1.668c-.244-.22-.438-.488-.573-.786-.135-.299-.206-.623-.21-.95l-.044.038c0-.111-.029-.225-.041-.343-.352-2.851-.792-8.735.763-13.088 2.132-5.969 2.778-14.283 1.226-19.232-.501-1.582-.912-3.191-1.232-4.819-.038-.206-.073-.402-.105-.586 1.061.143 2.112.355 3.145.634 3.595.991 11.46 1.175 18.174 1.121.016.184.035.377.057.57.12 1.344.37 2.672.748 3.967.842 2.535 1.229 13.71 1.229 13.71s1.086 9.188.494 12.927c-.317 2.078-.634 4.166-.814 6.263v.042s-1.78 5.069-3.082 7.822c-.032.07-.066.14-.098.206-.347.032-.689.107-1.017.225 0 0-1.745 3.485-3.484 4.062s-1.162 2.475 2.775 1.777c3.937-.697 9.882-1.267 9.882-1.267l.256-3.555 1.21-1.514-.317 3.545 1.289-.253-.171-4.312 1.98-2.478s2.391-2.129-1.162-6.318v.092c-.038-.06-.073-.124-.114-.184v-.019c-.59-.912-1.058-2.614-.2-5.633 1.552-5.456 2.455-10.408 2.455-10.408s3.465-13.266-.7-19.543h.183c-.426-.883-.728-1.821-.896-2.788-.021-.114-.04-.231-.057-.351 3.082-.178 6.107-.735 8.574-1.939-.01-.013-1.495-31.494-2.724-36.506zm-39.126-21.957v.063l-.633.032zm-2.172.301c-.105.023-.202.07-.285.136-.273.386-.444.834-.498 1.302l-.988-.221s-.694-.149-1.691-.317l-.472-.475c1.298-.108 2.648-.267 3.934-.425z" fill="url(#c)"/><path d="m308.024 235.577-.377 4.489 1.263-.253-.19-4.87z" fill="#1d2366"/><path d="m279.192 214.26c-1.524 4.341-1.093 10.199-.751 13.044.127 1.052.244 1.692.244 1.692s-2.277 5.19-2.467 5.386c-.19.197-6.702 4.173-6.702 4.173l-4.552 2.658s-4.618-2.024-2.404-2.721c.453-.182.86-.46 1.194-.814 2.217-2.107 5.001-7.345 5.001-7.345s.19-2.658.887-3.922.444-14.549.444-14.549l.054-21.656v-2.823l8.662.063c.055.959.18 1.912.374 2.852.311 1.623.714 3.226 1.207 4.803 1.526 4.94.893 13.212-1.191 19.159z" fill="#ffb0b1"/><path d="m278.685 228.996s-2.277 5.19-2.467 5.386c-.19.197-6.702 4.173-6.702 4.173l-4.552 2.658s-4.618-2.024-2.404-2.721c.453-.182.86-.46 1.194-.814l.197 1.384 1.517-.063 12.986-11.688c.114 1.045.231 1.685.231 1.685z" fill="#000" opacity=".1"/><path d="m278.527 227.605-13.059 11.767-1.517.064-.317-2.218s-2.654 3.415-8.552 3.225c0 0-3.541 2.342 1.707 2.469 5.249.126 11.951-.191 11.951-.191s4.681-7.287 8.599-6.336v5.503h1.203v-5.554c.56-.377 1.038-.863 1.404-1.429.367-.567.616-1.201.731-1.866.104-.685.031-1.385-.214-2.033s-.652-1.223-1.183-1.668c-.237-.222-.426-.49-.555-.788-.13-.298-.197-.62-.198-.945z" fill="#1d2366"/><path d="m309.227 221.028c-.842 3.01-.383 4.705.193 5.614v.019c.74 1.123 1.254 2.379 1.514 3.698l.051.285-5.942 8.665-3.224 1.267s-5.185-1.771-4.238-2.278c.238-.123.608-.782 1.033-1.692 1.267-2.74 3.015-7.797 3.015-7.797v-.041c.184-2.088.475-4.17.798-6.242.58-3.729-.485-12.882-.485-12.882s-.38-11.131-1.203-13.662c-.372-1.287-.619-2.607-.738-3.942-.171-1.584-.209-2.889-.209-2.889s3.414-4.753 9.673.38c.5.409.941.887 1.308 1.419 4.323 6.153.842 19.708.842 19.708s-.871 4.93-2.388 10.37z" fill="#ffb0b1"/><path d="m310.995 230.644-5.942 8.665-3.225 1.268s-5.184-1.771-4.237-2.278c.237-.124.608-.783 1.032-1.692 2.195-.019 3.332 2.072 3.332 2.072l2.781-.444s3.668-7.211 4.491-7.651c.824-.441.127-3.292.127-3.292v-.726c.022.025.041.054.066.079v.019c.74 1.123 1.254 2.379 1.514 3.698z" fill="#000" opacity=".1"/><path d="m302.145 238.866s-1.583-2.909-4.618-1.835c0 0-1.707 3.485-3.414 4.049s-1.137 2.465 2.721 1.771c3.857-.693 9.673-1.267 9.673-1.267l.253-3.545 3.921-4.997s2.338-2.119-1.14-6.292v.725s.697 2.852-.127 3.292c-.823.441-4.478 7.655-4.478 7.655z" fill="#1d2366"/><path d="m278.812 187.44c.054.958.179 1.912.373 2.852-3.566-.523-6.876-.263-9.045-.092v-2.823z" fill="#000" opacity=".1"/><path d="m311.125 191.74s-5.068.247-11.111.297c-.171-1.584-.209-2.889-.209-2.889s3.414-4.753 9.672.38c.501.409.941.887 1.309 1.419.098.271.211.535.339.793z" fill="#000" opacity=".1"/><path d="m311.124 191.169s-22.196 1.074-28.961-.824c-6.766-1.897-13.471-.253-14.481-.693-1.011-.441-.19-7.338.696-9.046.887-1.708 5.752-18.979 5.752-18.979l4.682-24.415 4.931-1.359.348-.098 8.593-2.37 6.297-1.74s12.52 48.898 11.447 52.503c-.39 1.381-.453 2.833-.184 4.243.164.962.46 1.897.88 2.778z" fill="#f1d427"/><path d="m262.494 120.515s-4.435 4.752-1.077 7.401c3.357 2.649 5.565.253 5.565.253z" fill="#c7daf5"/><path d="m262.494 120.515s-4.435 4.752-1.077 7.401c3.357 2.649 5.565.253 5.565.253z" fill="#000" opacity=".1"/><path d="m298.319 89.2684s-.519.4943-1.302 1.223c-1.115 1.0424-2.765 2.5664-4.228 3.8432-2.027 1.7648-3.699 3.0607-3.101 1.9549.599-1.1057.485-3.0321.187-4.8349-.022-.1204-.041-.2408-.063-.358-.247-1.324-.574-2.6318-.979-3.9161 0 0 3.275-4.2329 5.087-5.9027.674-.6336 1.146-.8934 1.175-.453.031.5925.475 1.901 1.026 3.2887.016.0444.032.0856.051.1299.367.9505.782 1.9264 1.146 2.7692.558 1.2927 1.001 2.2558 1.001 2.2558z" fill="#ffb0b1"/><path d="m296.172 84.2434c-.308 1.6559-1.055 3.1988-2.162 4.4673-1.108 1.2685-2.536 2.2162-4.135 2.7439-.252-1.4463-.6-2.8742-1.042-4.2741 0 0 6.167-7.9684 6.262-6.3557.022.6115.503 1.9675 1.077 3.4186z" fill="#000" opacity=".1"/><path d="m289.261 93.5837.798-1.1247s.529 3.2253 2.473 1.8027c1.945-1.4225 2.04 10.7063 2.04 10.7063l-2.087 31.217-15.083-.903.428-15.084 1.707-7.604 4.222-11.055 2.512-3.6527z" fill="#000" opacity=".1"/><path d="m294.572 105.161-1.9 28.227-.2 2.991-8.409-.504-.317-.019-6.334-.38.427-15.088 1.707-7.604 4.222-11.054 2.512-3.6534 2.99-4.3185.798-1.1216s.529 3.2254 2.474 1.8028l.041-.0285c1.9-1.204 1.989 10.7502 1.989 10.7502z" fill="#f1d427"/><path d="m279.759 110.142s-.757 1.584-2.278 1.327c-1.52-.256-1.517 5.703-1.517 5.703s-1.01.951-1.707.127-2.534 1.961-2.534 1.961l-11.51.507s5.122 2.342 4.118 9.426c0 0 17.388-1.077 17.958-2.722.57-1.644-2.53-16.329-2.53-16.329z" fill="#fff"/><path d="m279.759 110.142s-.757 1.584-2.278 1.327c-1.52-.256-1.517 5.703-1.517 5.703s-1.01.951-1.707.127-2.534 1.961-2.534 1.961l-11.51.507s5.122 2.342 4.118 9.426c0 0 17.388-1.077 17.958-2.722.57-1.644-2.53-16.329-2.53-16.329z" fill="#000" opacity=".03"/><path d="m246.309 123.49 3.034 2.592 24.977 5.25-3.097-3.162z" fill="#fff"/><path d="m289.308 94.5819c-.415.6336-1.603 3.878-2.594 6.7101-.827 2.361-1.517 4.436-1.517 4.436s-1.612 10.5-2.436 12.398c-.823 1.898-.377 9.299-.377 9.299l-3.069 18.278s-1.39 9.426-3.538 15.056c-2.119 5.542-4.478 8.14-4.551 8.222.95-1.286 6.129-26.614 6.129-26.614l1.71-31.943s.25-3.036.504-5.631c.253-2.594 5.384-6.1366 5.384-6.1366l4.947-7.037c.498.6654.165 1.825-.592 2.9625z" fill="#fff"/><path d="m276.408 135.634s-7.285-.317-10.814-4.556c-3.528-4.239 8.156-1.692 8.156-1.692l3.038.697z" fill="#ffb0b1"/><path d="m310.428 184.151c-.39 1.381-.453 2.833-.184 4.243-7.947.564-16.448-1.585-16.448-1.585-1.583 1.458-5.755 3.606-5.755 3.606l-2.274-28.198c-1.454-3.802-2.024-23.722-2.024-23.722s.13-1.042.317-2.604c0-.038 0-.079.016-.117.567-4.363 1.691-12.553 2.242-13.659.76-1.521-2.337-5.567-2.337-5.567l1.409-12.024.171-1.451c2.971-1.328 5.248-5.5668 5.248-5.5668l1.749-3.0638c1.9-1.2199 1.998 10.7346 1.998 10.7346l-1.9 28.227 6.297-1.74s12.548 48.882 11.475 52.487z" fill="#000" opacity=".1"/><path d="m318.583 186.1c-8.662 4.302-24.407.317-24.407.317-1.583 1.457-5.755 3.605-5.755 3.605l-2.277-28.198c-1.451-3.802-2.021-23.722-2.021-23.722s1.831-14.862 2.591-16.38c.222-.444.114-1.103-.149-1.812-1.292-3.378-1.768-7.014-1.387-10.611l.608-5.168.168-1.448c2.974-1.33 5.251-5.5696 5.251-5.5696l1.584-2.7755 2.914-5.1138 1.381-2.4206.234.2123 1.79 1.6222s.76.6337 1.9 1.5842c2.48 2.0911 6.765 5.7727 8.976 8.0254 1.945 1.9834 2.559 9.6984 2.737 15.5064.117 3.824.047 6.821.047 6.821-1.96 3.229 3.168 29.149 3.168 29.149 1.194 5.009 2.647 36.376 2.647 36.376z" fill="#fff"/><path d="m301.955 97.05s-5.945 11.321-5.254 15.623c.69 4.303 2.654 9.173 1.707 10.31-.326.431-.746.781-1.229 1.022s-1.015.368-1.555.369c-.951.063-3.484 1.834-3.484 2.025 0 .19-2.341.19-4.435 1.077-2.093.887-5.184 1.391-5.184 1.391s-6.018-.19-6.579.38-1.137 3.982.063 6.704c1.201 2.722 2.534 4.753 3.541 5.123 1.008.371 7.399-1.771 12.584-2.278s10.813-4.616 10.813-4.616 6.199-2.218 7.285-5.947-1.327-24.225-1.327-24.225-1.824-9.5529-6.946-6.958z" fill="#000" opacity=".03"/><path d="m301.195 96.0994s-5.945 11.3236-5.248 15.6236c.697 4.299 2.654 9.172 1.704 10.313-.324.431-.744.781-1.227 1.023-.483.241-1.015.367-1.554.368-.95.063-3.484 1.834-3.484 2.024s-2.341.19-4.434 1.074c-2.094.884-5.185 1.391-5.185 1.391s-6.018-.19-6.576.38c-.557.571-1.14 3.986.064 6.705 1.203 2.718 2.534 4.752 3.541 5.123 1.007.37 7.399-1.771 12.583-2.275 5.185-.504 10.814-4.62 10.814-4.62s6.195-2.217 7.269-5.943c1.073-3.726-1.327-24.229-1.327-24.229s-1.819-9.5493-6.94-6.9576z" fill="#000" opacity=".03"/><path d="m301.768 96.4797s-5.945 11.3233-5.248 15.6233c.697 4.299 2.654 9.172 1.707 10.31-.324.432-.744.783-1.228 1.025-.483.242-1.016.368-1.556.369-.95.063-3.484 1.834-3.484 2.021s-2.337.19-4.434 1.077c-2.097.888-5.185 1.391-5.185 1.391s-6.018-.19-6.579.381c-.56.57-1.137 3.985.064 6.704 1.2 2.718 2.534 4.752 3.541 5.123s7.399-1.771 12.584-2.278c5.184-.507 10.813-4.616 10.813-4.616s6.198-2.218 7.285-5.947c1.086-3.729-1.312-24.226-1.312-24.226s-1.849-9.5363-6.968-6.9573z" fill="#fff"/><path d="m301.638 126.851s-4.751-.95-3.097.634c1.653 1.584 1.644 2.972 3.668 2.909 2.023-.064-.571-3.543-.571-3.543z" fill="#000" opacity=".1"/><path d="m309.667 160.937s-2.147 1.454 1.961 4.806-1.961-4.806-1.961-4.806z" fill="#000" opacity=".1"/><path d="m305.569 172.891c0 .19-.76 6.97 2.084 8.665s-2.084-8.665-2.084-8.665z" fill="#000" opacity=".1"/><path d="m260.41 119.751c-2.294.079-7.247.78-4.679 5.573 2.271 4.243 6.088 1.407 8.235-.744-.523-2.006-1.796-3.734-3.556-4.829z" fill="#ffb0b1"/><path d="m263.995 124.543.096-.099z" fill="#ffb0b1"/><path d="m301.008 90.4154c-2.432 1.6633-4.472 3.0669-4.871 3.3584-1.09.8079-3.168 5.551-4.507 7.9712-1.068 1.949-4.536 2.45-5.844 2.573l.168-1.448c2.974-1.331 5.251-5.5698 5.251-5.5698l5.879-10.3098 2.024 1.8408s.76.6336 1.9 1.5842z" fill="#000" opacity=".1"/><path d="m301.008 90.2253c-2.432 1.6634-4.472 3.067-4.871 3.3617-1.09.8047-3.168 5.5478-4.507 7.968-1.068 1.949-4.536 2.45-5.844 2.573l.168-1.448c2.974-1.331 5.251-5.5698 5.251-5.5698l5.879-10.3098 2.024 1.8344s.76.6274 1.9 1.5905z" fill="#dce7ff"/><path d="m296.327 82.1524c.001 1.9019-.575 3.7593-1.653 5.326-1.274 1.8523-3.169 3.1867-5.341 3.7611-2.173.5743-4.479.3505-6.501-.6307-2.022-.9813-3.625-2.655-4.519-4.7176-.893-2.0625-1.018-4.3772-.352-6.5241.666-2.1468 2.08-3.9835 3.985-5.1769 1.904-1.1934 4.173-1.6643 6.395-1.3274 2.222.337 4.249 1.4595 5.714 3.1639 1.466 1.7044 2.272 3.8777 2.272 6.1257z" fill="#ffb0b1"/><path d="m312.721 113.757c-1.286-.792-2.334-1.917-3.031-3.257-.529-1.046-.881-2.253-1.783-2.995-.814-.665-1.901-.826-2.914-1.124-3.332-.986-6.126-4.027-6.231-7.4998-.05-1.6348.46-3.2666.229-4.8856-.132-.9163-.496-1.7835-1.058-2.5188-.279-.3517-.586-.6811-.916-.9854-.443-.4182-.909-.8238-1.314-1.2673-.256-.2747-.479-.5776-.665-.903-.151-.2663-.273-.5477-.365-.8396-.633-1.9391-.057-4.2393-.753-6.2005l-.038-.1077c-.263-.6971-.798-1.3941-1.543-1.448-.744-.0538-1.381.564-2.09.8397-1.486.5766-3.088-.4056-4.327-1.4068-1.238-1.0012-2.635-2.145-4.209-1.9232-1.042.1489-1.866.8586-2.825 1.2262-.217.0839-.441.1485-.669.1932.813-2.0261 2.305-3.706 4.221-4.7512 1.915-1.0451 4.135-1.3902 6.278-.9759 2.142.4142 4.074 1.5619 5.462 3.246 1.389 1.684 2.148 3.7992 2.147 5.9822.001.6592-.068 1.3166-.206 1.9612.016.0443.032.0855.051.1299.367.9505.782 1.9263 1.146 2.7691l1.79 1.6222s.76.6337 1.9 1.5842c2.48 2.0911 6.765 5.7728 8.976 8.0255 1.945 1.9894 2.553 9.7014 2.737 15.5094z" fill="#000" opacity=".1"/><path d="m278.777 72.6727c.453-.922.678-1.9549 1.219-2.8294.795-1.2673 2.183-2.0784 3.608-2.5695 3.721-1.2832 11.586-3.1462 13.936 0 .462.6337.846 1.3371 1.485 1.7743.488.3327 1.077.4752 1.613.7255 1.498.7034 2.454 2.2369 2.964 3.8021.51 1.5651.662 3.2444 1.036 4.8571.478 2.0689 1.317 4.0301 2.154 5.9786.985 2.3003 2.03 4.6861 3.93 6.3114 2.594 2.2179 3.168 5.3577 5.575 7.791 2.85 2.8892 2.758 7.6582 1.289 11.4442-.193.497-.412 1.017-.336 1.546s.469 1.011.839 1.432l1.559 1.759c-3.687.89-7.858-1.036-9.575-4.417-.529-1.046-.881-2.25-1.786-2.994-.811-.666-1.901-.824-2.911-1.122-3.332-.988-6.126-4.033-6.23-7.5056-.051-1.6317.459-3.2634.228-4.8793-.129-.9224-.494-1.7958-1.061-2.5347-.871-1.1374-2.186-1.901-2.895-3.1683-1.201-2.1197-.288-4.873-1.153-7.1478-.266-.6971-.798-1.3941-1.543-1.448-.744-.0538-1.38.564-2.093.8396-1.482.5767-3.085-.4023-4.323-1.4067-1.239-1.0044-2.636-2.145-4.213-1.92-1.042.1457-1.862.8554-2.822 1.2261-.71.2725-2.147.5165-2.768-.0824-1.312-1.2071 1.726-4.3343 2.274-5.4622z" fill="#591d4b"/><path d="m310.953 109.232c-.532-1.045-.88-2.249-1.786-2.991-.811-.665-1.9-.827-2.914-1.124-3.329-.986-6.122-4.031-6.23-7.5032-.051-1.6317.459-3.2665.231-4.8824-.132-.9165-.498-1.7837-1.061-2.5188-.874-1.1375-2.188-1.9011-2.895-3.1684-1.2-2.1165-.288-4.8698-1.156-7.1478-.263-.6939-.798-1.3909-1.539-1.4479-.741-.0571-1.384.5671-2.094.8427-1.482.5767-3.088-.4055-4.323-1.4067s-2.638-2.145-4.213-1.9232c-1.042.1489-1.865.8586-2.822 1.2262-.709.2724-2.15.5196-2.771-.0793-1.305-1.2673 1.733-4.3881 2.277-5.5097.453-.9252.678-1.9549 1.223-2.8294.028-.0475.06-.095.092-.1425-.408.3377-.759.7376-1.042 1.1849-.542.8745-.767 1.901-1.22 2.8294-.548 1.1216-3.585 4.2519-2.277 5.5097.633.602 2.059.3549 2.768.0824.95-.3707 1.78-1.0804 2.822-1.2261 1.584-.225 2.978.9188 4.213 1.92s2.85 1.9834 4.326 1.4067c.71-.2756 1.331-.8966 2.091-.8396s1.267.7509 1.542 1.448c.865 2.2748-.047 5.0281 1.153 7.1478.71 1.2451 2.024 2.0245 2.895 3.1683.567.7389.932 1.6123 1.061 2.5347.231 1.6159-.279 3.2476-.228 4.8793.105 3.4849 2.898 6.5169 6.23 7.5059 1.004.298 2.1.456 2.911 1.122.909.744 1.267 1.948 1.786 2.994 1.717 3.38 5.888 5.307 9.575 4.416l-.735-.83c-3.196.048-6.429-1.771-7.89-4.648z" fill="#000" opacity=".1"/><path d="m289.118 94.7719c-.415.6337-1.603 3.8781-2.594 6.7111-.928-.362-1.771-2.6651-1.771-2.6651l4.948-7.0401c.507.6971.174 1.8535-.583 2.9941z" fill="#000" opacity=".1"/><path d="m289.308 94.5818c-.415.6336-1.603 3.878-2.594 6.7102-.928-.358-1.771-2.6642-1.771-2.6642l4.948-7.037c.507.6939.174 1.8535-.583 2.991z" fill="#dce7ff"/><path d="m260.543 126.95-2.743-8.653c-.033-.101-.045-.208-.036-.314s.039-.209.087-.304c.049-.094.116-.178.198-.247.081-.068.175-.12.276-.152.205-.064.426-.044.615.054.19.099.334.268.399.472l2.743 8.643-.273 1.809z" fill="#be8b87"/><path d="m258.059 117.537c.205-.065.427-.046.617.052.191.099.335.269.4.473l2.743 8.644-.206 1.356.2.209.272-1.809-2.759-8.643c-.065-.204-.208-.374-.398-.472-.19-.099-.411-.118-.615-.054-.172.055-.32.167-.421.316.053-.029.11-.053.167-.072z" fill="#fff" opacity=".1"/><path d="m260.543 126.95 1.539-.488-.225 1.482-.047.327-.45-.469z" fill="#efc8c4"/><path d="m261.36 127.802c.027-.034.06-.062.098-.082.022-.014.048-.022.074-.022.027 0 .053.008.075.022.021.026.039.054.054.085.021.035.049.065.083.087.034.023.073.038.113.043l-.048.317z" fill="#727a9c"/><path d="m257.784 121.37s5.501-.031 4.206 2.31-3.319 2.623-3.319 2.623z" fill="#ffb0b1"/><path d="m223.567 16.2917h-.237c-9.451 0-17.81 5.0029-22.618 12.3852-4.808-7.3823-13.166-12.3852-22.618-12.3852h-.237c-7.093.0677-13.873 2.9327-18.866 7.9725s-7.796 11.8472-7.8 18.9427c0 8.8112 3.858 21.3136 11.38 31.6012 14.333 19.6027 38.141 36.7529 38.141 36.7529s23.809-17.1471 38.138-36.7529c7.525-10.2876 11.38-22.79 11.38-31.6012-.004-7.095-2.807-13.9019-7.799-18.9416s-11.771-7.9051-18.864-7.9736zm-3.398 60.0246c-1.076-.0041-2.126-.3337-3.012-.9455s-1.566-1.4772-1.951-2.4827h-5.651c-.372-.0023-.734-.1208-1.035-.3389-.302-.2181-.528-.525-.647-.8777l-1.735-5.231-5.492 19.1971c-.107.3695-.331.6944-.638.9258-.308.2314-.682.3568-1.066.3574h-.111c-.402-.0194-.784-.176-1.084-.4436-.3-.2675-.498-.6299-.563-1.0265l-5.66-34.0535-4.137 20.1507c-.095.3828-.315.7228-.625.9657-.311.2429-.694.3748-1.088.3745h-7.96c-.238.0101-.476-.0282-.7-.1125-.223-.0844-.427-.2131-.6-.3784-.172-.1654-.309-.3638-.403-.5836-.094-.2197-.142-.4561-.142-.695s.048-.4753.142-.6951c.094-.2197.231-.4182.403-.5835.173-.1653.377-.294.6-.3784.224-.0843.462-.1226.7-.1125h6.566l5.86-27.0927c.096-.4005.328-.7552.657-1.0034s.733-.3745 1.145-.3573c.411.0172.804.1769 1.111.4516.306.2748.508.6477.571 1.0549l5.78 34.7379 4.922-17.1757c.103-.3617.319-.6806.618-.909.298-.2284.663-.3541 1.039-.3584h.034c.373.0002.735.1178 1.037.3363.301.2185.526.5266.642.8804l3.139 9.4449h4.301c.306-.9294.862-1.7562 1.608-2.3892s1.652-1.0475 2.619-1.1978c.966-.1503 1.956-.0305 2.858.3461.903.3766 1.684.9954 2.258 1.788.573.7927.917 1.7285.992 2.704s-.12 1.9529-.565 2.8243-1.122 1.6029-1.956 2.1137c-.834.5109-1.793.7812-2.772.7813z" fill="#0abab5"/></g></svg>