<svg fill="none" height="48" viewBox="0 0 48 48" width="48" xmlns="http://www.w3.org/2000/svg"><path d="m40.7873 6.74868h-8.9841v-1.56063c0-.54833-.464-1.0123-1.0123-1.0123h-1.6872c-.2109-1.01231-.7171-1.94025-1.4341-2.6573-.928-.92794-2.2355-1.51845-3.6696-1.51845s-2.7417.59051-3.6696 1.51845c-.717.71705-1.2232 1.64499-1.4341 2.6573h-1.6872c-.5483 0-1.0123.46397-1.0123 1.0123v1.56063h-8.98415c-.54833 0-1.0123.46397-1.0123 1.0123v39.22672c0 .5483.46397 1.0123 1.0123 1.0123h33.57465c.5484 0 1.0123-.464 1.0123-1.0123v-39.22672c0-.54833-.4639-1.0123-1.0123-1.0123zm-22.5659 1.0123v-1.56063h1.6029c.5483 0 1.0123-.46397 1.0123-1.0123 0-.88577.3374-1.68717.9279-2.2355.5905-.59051 1.3919-.92795 2.2355-.92795.8858 0 1.6872.33744 2.2355.92795.5905.59051.9279 1.39191.9279 2.2355 0 .54833.464 1.0123 1.0123 1.0123h1.6029v1.56063 1.56064h-11.5572zm21.5536 38.21442h-31.55005v-37.20211h7.97185v1.56061c0 .5483.464 1.0123 1.0123 1.0123h13.5818c.5483 0 1.0123-.464 1.0123-1.0123v-1.56061h7.9718z" fill="#adb3b2"/><path d="m12.1476 24.5906h1.8138v1.8137c0 .5483.4639 1.0123 1.0123 1.0123h5.9894c.5483 0 1.0123-.464 1.0123-1.0123v-1.8137h1.8137c.5484 0 1.0123-.464 1.0123-1.0123v-5.9895c0-.5483-.4639-1.0123-1.0123-1.0123h-1.8137v-1.8137c0-.5483-.464-1.0123-1.0123-1.0123h-5.9894c-.5484 0-1.0123.464-1.0123 1.0123v1.8137h-1.8138c-.5483 0-1.0123.464-1.0123 1.0123v5.9895c0 .5483.464 1.0123 1.0123 1.0123zm1.0124-5.9895h1.8137c.5483 0 1.0123-.4639 1.0123-1.0123v-1.8137h3.9648v1.8137c0 .5484.464 1.0123 1.0123 1.0123h1.8137v3.9649h-1.8137c-.5483 0-1.0123.464-1.0123 1.0123v1.8137h-3.9648v-1.8137c0-.5483-.464-1.0123-1.0123-1.0123h-1.8137z" fill="#f1d427"/><g fill="#adb3b2"><path d="m27.8383 15.3533c0 .5483.464 1.0123 1.0123 1.0123h5.9894c.5484 0 1.0123-.464 1.0123-1.0123 0-.5484-.4639-1.0123-1.0123-1.0123h-5.9894c-.5905 0-1.0123.4639-1.0123 1.0123z"/><path d="m34.7979 20.5413h-5.9473c-.5483 0-1.0123.4639-1.0123 1.0123 0 .5483.464 1.0123 1.0123 1.0123h5.9894c.5484 0 1.0123-.464 1.0123-1.0123-.0421-.5484-.4639-1.0123-1.0544-1.0123z"/><path d="m34.7979 26.7416h-5.9473c-.5483 0-1.0123.4639-1.0123 1.0123 0 .5483.464 1.0123 1.0123 1.0123h5.9894c.5484 0 1.0123-.464 1.0123-1.0123-.0421-.5484-.4639-1.0123-1.0544-1.0123z"/><path d="m34.7979 32.942h-22.6503c-.5483 0-1.0123.464-1.0123 1.0124 0 .5483.464 1.0123 1.0123 1.0123h22.6503c.5483 0 1.0123-.464 1.0123-1.0123 0-.5906-.4218-1.0124-1.0123-1.0124z"/><path d="m34.7979 39.1424h-22.6503c-.5483 0-1.0123.464-1.0123 1.0123s.464 1.0123 1.0123 1.0123h22.6503c.5483 0 1.0123-.464 1.0123-1.0123 0-.5905-.4218-1.0123-1.0123-1.0123z"/></g></svg>