<svg fill="none" height="48" viewBox="0 0 48 48" width="48" xmlns="http://www.w3.org/2000/svg"><path d="m41.4925 21.9188c1.4259 0 2.5818-1.1559 2.5818-2.5818 0-1.4258-1.1559-2.5818-2.5818-2.5818s-2.5818 1.156-2.5818 2.5818c0 1.4259 1.1559 2.5818 2.5818 2.5818z" fill="#f1d427"/><path d="m41.4925 12.8562c-3.5829 0-6.4808 2.8979-6.4808 6.4808 0 3.2667 2.4237 5.9539 5.5324 6.4281v7.9034c0 6.9023-5.5851 12.5401-12.4347 12.5401s-12.4347-5.6378-12.4347-12.5401v-5.7958c7.3765-.6323 13.1723-6.797 13.1723-14.3315 0-3.4248-1.2118-6.69158-3.4248-9.27336.2635-.42152.4215-.89572.4215-1.42261 0-1.58069-1.2645-2.84523-2.8452-2.84523s-2.8452 1.26454-2.8452 2.84523c0 1.58068 1.2645 2.84522 2.8452 2.84522.3688 0 .7377-.05269 1.0538-.21076 1.8968 2.26565 2.9506 5.05821 2.9506 8.06151 0 6.9023-5.6378 12.54-12.5401 12.54-6.90227 0-12.54003-5.6377-12.54003-12.54 0-3.056 1.10648-5.95393 3.05598-8.16689.42152.21076.84303.31614 1.31724.31614 1.58068 0 2.84522-1.26454 2.84522-2.84522 0-1.58069-1.26454-2.84523-2.84522-2.84523s-2.84523 1.26454-2.84523 2.84523c0 .42151.10538.79034.26345 1.15916-2.31833 2.63447-3.6355662 5.9539-3.6355662 9.53681 0 7.7453 6.1119662 14.0153 13.7519562 14.3315v5.7431c0 7.9561 6.4281 14.3842 14.2788 14.3842s14.2788-6.4281 14.2788-14.3842v-7.9034c3.1087-.4742 5.5324-3.1614 5.5324-6.4281.0527-3.5302-2.8979-6.4281-6.4281-6.4281zm0 11.0648c-2.5291 0-4.584-2.0549-4.584-4.584s2.0549-4.584 4.584-4.584 4.5839 2.0549 4.5839 4.584-2.0548 4.584-4.5839 4.584z" fill="#fff"/></svg>